<?xml version="1.0"?>
<svg xmlns="http://www.w3.org/2000/svg" xmlns:xlink="http://www.w3.org/1999/xlink" version="1.1" id="Layer_1" x="0px" y="0px" viewBox="0 0 511.891 511.891" style="enable-background:new 0 0 511.891 511.891;" xml:space="preserve" width="512px" height="512px" class=""><g><g id="XMLID_1309_">
	<g id="XMLID_1268_">
		<g id="XMLID_1269_">
			<g id="XMLID_1270_">
				<path id="XMLID_1277_" d="M510.566,333.748l-54-94.195c-1.782-3.108-5.092-5.026-8.675-5.026H363.22v-71.093      c0-5.522-4.477-10-10-10H317.11c-5.523,0-10,4.478-10,10s4.477,10,10,10h26.109v243.512H173.5      c-7.705-9.792-19.651-16.098-33.048-16.098s-25.343,6.306-33.048,16.098H73.891V379.97H273.22c5.523,0,10-4.478,10-10      s-4.477-10-10-10H73.891v-89.042c16.445,7.703,34.781,12.017,54.109,12.017c70.58,0,128-57.421,128-128s-57.42-128-128-128      S0,84.366,0,154.945c0,42.982,21.296,81.084,53.891,104.309v167.691c0,5.522,4.477,10,10,10h34.941      c-0.277,1.945-0.429,3.93-0.429,5.951c0,23.186,18.863,42.049,42.049,42.049s42.049-18.863,42.049-42.049      c0-2.021-0.152-4.006-0.429-5.951H353.22h39.392c-0.277,1.945-0.429,3.93-0.429,5.951c0,23.186,18.863,42.049,42.049,42.049      s42.049-18.863,42.049-42.049c0-2.021-0.152-4.006-0.429-5.951h26.039c5.523,0,10-4.478,10-10v-88.224      C511.891,336.977,511.434,335.262,510.566,333.748z M20,154.945c0-59.552,48.449-108,108-108s108,48.448,108,108      s-48.449,108-108,108c-21.437,0-41.434-6.279-58.252-17.093c-0.235-0.171-0.479-0.33-0.729-0.48      C39.527,226.07,20,192.748,20,154.945z M140.452,464.945c-12.158,0-22.049-9.891-22.049-22.049s9.891-22.049,22.049-22.049      s22.049,9.891,22.049,22.049S152.609,464.945,140.452,464.945z M484.631,328.722h-76.74v-74.195h34.206L484.631,328.722z       M434.232,464.945c-12.158,0-22.049-9.891-22.049-22.049s9.891-22.049,22.049-22.049s22.049,9.891,22.049,22.049      S446.39,464.945,434.232,464.945z M467.28,416.945c-7.705-9.792-19.651-16.098-33.048-16.098      c-13.588,0-25.684,6.484-33.376,16.514c-0.902-0.268-1.856-0.417-2.846-0.417H363.22V254.526h24.671v84.195      c0,5.522,4.477,10,10,10h94v8.503h-7.102c-5.523,0-10,4.478-10,10s4.477,10,10,10h7.102v39.721H467.28z" data-original="#000000" class="active-path" data-old_color="#000000" fill="#FFFFFF"/>
				<path id="XMLID_1276_" d="M281.5,173.436c2.63,0,5.21-1.07,7.07-2.931c1.86-1.859,2.93-4.439,2.93-7.069      c0-2.631-1.07-5.21-2.93-7.07c-1.86-1.86-4.44-2.93-7.07-2.93s-5.21,1.069-7.07,2.93c-1.86,1.86-2.93,4.43-2.93,7.07      c0,2.63,1.07,5.21,2.93,7.069C276.291,172.365,278.871,173.436,281.5,173.436z" data-original="#000000" class="active-path" data-old_color="#000000" fill="#FFFFFF"/>
				<path id="XMLID_1275_" d="M313.221,379.965c2.63,0,5.21-1.06,7.07-2.92c1.86-1.87,2.93-4.45,2.93-7.08s-1.07-5.21-2.93-7.069      c-1.86-1.86-4.44-2.931-7.07-2.931c-2.63,0-5.21,1.07-7.07,2.931c-1.86,1.859-2.93,4.439-2.93,7.069s1.07,5.21,2.93,7.08      C308.01,378.905,310.59,379.965,313.221,379.965z" data-original="#000000" class="active-path" data-old_color="#000000" fill="#FFFFFF"/>
				<path id="XMLID_1274_" d="M127.904,248.771c5.523,0,10-4.478,10-10v-7.264c0-5.522-4.477-10-10-10s-10,4.478-10,10v7.264      C117.904,244.293,122.381,248.771,127.904,248.771z" data-original="#000000" class="active-path" data-old_color="#000000" fill="#FFFFFF"/>
				<path id="XMLID_1273_" d="M128.096,88.384c5.523,0,10-4.478,10-10V71.12c0-5.522-4.477-10-10-10s-10,4.478-10,10v7.264      C118.096,83.906,122.573,88.384,128.096,88.384z" data-original="#000000" class="active-path" data-old_color="#000000" fill="#FFFFFF"/>
				<path id="XMLID_1272_" d="M51.438,144.85h-7.263c-5.523,0-10,4.478-10,10s4.477,10,10,10h7.263c5.523,0,10-4.478,10-10      S56.961,144.85,51.438,144.85z" data-original="#000000" class="active-path" data-old_color="#000000" fill="#FFFFFF"/>
				<path id="XMLID_1271_" d="M128,164.945h76.23c5.523,0,10-4.478,10-10s-4.477-10-10-10H138v-22.023c0-5.522-4.477-10-10-10      s-10,4.478-10,10v32.023C118,160.468,122.477,164.945,128,164.945z" data-original="#000000" class="active-path" data-old_color="#000000" fill="#FFFFFF"/>
			</g>
		</g>
	</g>
</g><script xmlns="" class="active-path"/></g> </svg>
